<mxfile host="65bd71144e">
    <diagram id="GM_LwJhD_kH3F-W7C1gs" name="Page-1">
        <mxGraphModel dx="978" dy="734" grid="1" gridSize="10" guides="1" tooltips="1" connect="1" arrows="1" fold="1" page="1" pageScale="1" pageWidth="845" pageHeight="300" math="0" shadow="0">
            <root>
                <mxCell id="0"/>
                <mxCell id="1" parent="0"/>
                <mxCell id="r83g5te3AEHIeUQ5Fmxh-1" value="&lt;b&gt;&lt;font style=&quot;font-size: 16px&quot;&gt;Sequencer&lt;/font&gt;&lt;/b&gt;" style="rounded=1;whiteSpace=wrap;html=1;fillColor=#FFD966;strokeColor=#67AB9F;strokeWidth=4;" parent="1" vertex="1">
                    <mxGeometry x="10" y="60" width="115" height="220" as="geometry"/>
                </mxCell>
                <mxCell id="r83g5te3AEHIeUQ5Fmxh-2" value="&lt;b&gt;&lt;font style=&quot;&quot;&gt;&lt;font style=&quot;font-size: 14px;&quot;&gt;PIF VVC&lt;br&gt;(optional)&lt;/font&gt;&lt;br&gt;&lt;/font&gt;&lt;/b&gt;" style="rounded=0;whiteSpace=wrap;html=1;strokeColor=#67AB9F;strokeWidth=4;fillColor=#FFFF66;" parent="1" vertex="1">
                    <mxGeometry x="170" y="140" width="120" height="40" as="geometry"/>
                </mxCell>
                <mxCell id="r83g5te3AEHIeUQ5Fmxh-8" value="&lt;b style=&quot;border-color: var(--border-color); font-size: 16px;&quot;&gt;User made VVC&amp;nbsp;&lt;/b&gt;&lt;div&gt;&lt;b style=&quot;border-color: var(--border-color); font-size: 16px;&quot;&gt;(VVC optional)&lt;/b&gt;&lt;/div&gt;" style="rounded=0;whiteSpace=wrap;html=1;strokeColor=#67AB9F;strokeWidth=4;fillColor=#FFFF66;verticalAlign=top;" parent="1" vertex="1">
                    <mxGeometry x="550" y="140" width="230" height="130" as="geometry"/>
                </mxCell>
                <mxCell id="r83g5te3AEHIeUQ5Fmxh-11" value="" style="rounded=0;whiteSpace=wrap;html=1;strokeColor=#67AB9F;strokeWidth=4;fillColor=#E6D0DE;" parent="1" vertex="1">
                    <mxGeometry x="430" y="130" width="80" height="120" as="geometry"/>
                </mxCell>
                <mxCell id="r83g5te3AEHIeUQ5Fmxh-13" value="" style="endArrow=classic;startArrow=classic;html=1;strokeWidth=3;entryX=0;entryY=0.25;entryDx=0;entryDy=0;exitX=1;exitY=0.5;exitDx=0;exitDy=0;" parent="1" source="r83g5te3AEHIeUQ5Fmxh-2" target="r83g5te3AEHIeUQ5Fmxh-11" edge="1">
                    <mxGeometry width="50" height="50" relative="1" as="geometry">
                        <mxPoint x="-90" y="340" as="sourcePoint"/>
                        <mxPoint x="-40" y="290" as="targetPoint"/>
                        <Array as="points">
                            <mxPoint x="340" y="160"/>
                        </Array>
                    </mxGeometry>
                </mxCell>
                <mxCell id="r83g5te3AEHIeUQ5Fmxh-14" value="" style="endArrow=classic;startArrow=classic;html=1;strokeWidth=3;exitX=1;exitY=0.25;exitDx=0;exitDy=0;" parent="1" source="r83g5te3AEHIeUQ5Fmxh-11" edge="1">
                    <mxGeometry width="50" height="50" relative="1" as="geometry">
                        <mxPoint x="-50" y="340" as="sourcePoint"/>
                        <mxPoint x="550" y="160" as="targetPoint"/>
                    </mxGeometry>
                </mxCell>
                <mxCell id="r83g5te3AEHIeUQ5Fmxh-29" value="" style="endArrow=classic;html=1;dashed=1;strokeWidth=3;fillColor=#60a917;strokeColor=#2D7600;entryX=1.01;entryY=0.125;entryDx=0;entryDy=0;entryPerimeter=0;" parent="1" target="r83g5te3AEHIeUQ5Fmxh-8" edge="1">
                    <mxGeometry width="50" height="50" relative="1" as="geometry">
                        <mxPoint x="130" y="90" as="sourcePoint"/>
                        <mxPoint x="700" y="160" as="targetPoint"/>
                        <Array as="points">
                            <mxPoint x="220" y="90"/>
                            <mxPoint x="290" y="90"/>
                            <mxPoint x="810" y="90"/>
                            <mxPoint x="810" y="156"/>
                        </Array>
                    </mxGeometry>
                </mxCell>
                <mxCell id="r83g5te3AEHIeUQ5Fmxh-33" value="&lt;font size=&quot;1&quot;&gt;&lt;b&gt;&lt;u style=&quot;font-size: 16px&quot;&gt;DUT&lt;/u&gt;&lt;/b&gt;&lt;/font&gt;" style="text;html=1;strokeColor=none;fillColor=none;align=center;verticalAlign=middle;whiteSpace=wrap;rounded=0;" parent="1" vertex="1">
                    <mxGeometry x="420" y="170" width="100" height="20" as="geometry"/>
                </mxCell>
                <mxCell id="r83g5te3AEHIeUQ5Fmxh-37" value="" style="endArrow=none;dashed=1;html=1;strokeWidth=3;gradientColor=#b3b3b3;fillColor=#f5f5f5;strokeColor=#666666;dashPattern=1 2;" parent="1" edge="1">
                    <mxGeometry width="50" height="50" relative="1" as="geometry">
                        <mxPoint x="150" y="10" as="sourcePoint"/>
                        <mxPoint x="150" y="10" as="targetPoint"/>
                        <Array as="points">
                            <mxPoint x="430" y="10"/>
                            <mxPoint x="840" y="10"/>
                            <mxPoint x="840" y="280"/>
                            <mxPoint x="150" y="280"/>
                        </Array>
                    </mxGeometry>
                </mxCell>
                <mxCell id="r83g5te3AEHIeUQ5Fmxh-39" value="&lt;font size=&quot;1&quot;&gt;&lt;b style=&quot;font-size: 16px&quot;&gt;Test harness&lt;/b&gt;&lt;/font&gt;" style="text;html=1;strokeColor=none;fillColor=none;align=center;verticalAlign=middle;whiteSpace=wrap;rounded=0;" parent="1" vertex="1">
                    <mxGeometry x="710" y="10" width="110" height="20" as="geometry"/>
                </mxCell>
                <mxCell id="r83g5te3AEHIeUQ5Fmxh-47" value="&lt;font size=&quot;1&quot;&gt;&lt;b style=&quot;font-size: 16px&quot;&gt;Testbench&lt;/b&gt;&lt;/font&gt;" style="text;html=1;strokeColor=none;fillColor=none;align=center;verticalAlign=middle;whiteSpace=wrap;rounded=0;" parent="1" vertex="1">
                    <mxGeometry x="10" y="10" width="80" height="20" as="geometry"/>
                </mxCell>
                <mxCell id="vyIQQBK7vmGZ_ZomwAHR-1" value="" style="endArrow=none;dashed=1;html=1;exitX=0;exitY=0.5;exitDx=0;exitDy=0;fillColor=#d5e8d4;strokeColor=#2D7600;strokeWidth=3;" parent="1" source="r83g5te3AEHIeUQ5Fmxh-2" edge="1">
                    <mxGeometry width="50" height="50" relative="1" as="geometry">
                        <mxPoint x="-180" y="420" as="sourcePoint"/>
                        <mxPoint x="120" y="160" as="targetPoint"/>
                    </mxGeometry>
                </mxCell>
                <mxCell id="fbfqpuWxEKbpqcm9xzH3-1" value="&lt;span style=&quot;font-size: 16px;&quot;&gt;&lt;b&gt;assert_value_in_range&lt;/b&gt;&lt;/span&gt;" style="rounded=1;whiteSpace=wrap;html=1;fillColor=#f8cecc;strokeColor=#b85450;strokeWidth=4;" parent="1" vertex="1">
                    <mxGeometry x="180" y="200" width="210" height="50" as="geometry"/>
                </mxCell>
                <mxCell id="3jlZFkxg4EAA0DXqRLMq-2" value="" style="endArrow=classic;html=1;rounded=0;strokeWidth=3;strokeColor=#B85450;" parent="1" edge="1">
                    <mxGeometry width="50" height="50" relative="1" as="geometry">
                        <mxPoint x="430" y="224.83" as="sourcePoint"/>
                        <mxPoint x="390" y="225.15" as="targetPoint"/>
                    </mxGeometry>
                </mxCell>
                <mxCell id="3jlZFkxg4EAA0DXqRLMq-3" value="&lt;span style=&quot;font-size: 16px;&quot;&gt;&lt;b&gt;assert_one_of_async&lt;/b&gt;&lt;/span&gt;" style="rounded=1;whiteSpace=wrap;html=1;fillColor=#f8cecc;strokeColor=#b85450;strokeWidth=4;" parent="1" vertex="1">
                    <mxGeometry x="560" y="199.99999999999997" width="210" height="50" as="geometry"/>
                </mxCell>
                <mxCell id="3jlZFkxg4EAA0DXqRLMq-4" value="" style="endArrow=none;html=1;exitX=0;exitY=0.5;exitDx=0;exitDy=0;fillColor=#d5e8d4;strokeColor=#000000;strokeWidth=3;endFill=0;startArrow=classic;startFill=1;" parent="1" source="fbfqpuWxEKbpqcm9xzH3-1" edge="1">
                    <mxGeometry width="50" height="50" relative="1" as="geometry">
                        <mxPoint x="170" y="224.85" as="sourcePoint"/>
                        <mxPoint x="120" y="224.85" as="targetPoint"/>
                    </mxGeometry>
                </mxCell>
            </root>
        </mxGraphModel>
    </diagram>
</mxfile>